<svg viewBox="0 0 160 160" xmlns="http://www.w3.org/2000/svg"><path d="M102.289 80.118v-.116c0-11.597 9.391-21.002 21.912-21.002C136.722 59 146 68.292 146 79.89v.112C146 91.599 136.609 101 124.088 101c-3.847 0-7.392-.871-10.447-2.43-3.96-2.023-6.26.222-10.032 1.623 2.602-2.59 4.564-4.7 2.037-8.722-2.075-3.307-3.357-7.155-3.357-11.353zm-40.807-20.21h10.485l16.707 21.348V59.909H99.8v40.378h-9.881L72.608 78.14v22.147H61.482V59.909zm-30.247-.39h10.862L59.37 100.19H47.302l-2.942-7.212H28.709l-2.904 7.212H14l17.235-40.67zm9.882 24.749L36.59 72.79 31.99 84.267h9.127z" fill="#fff"/></svg>
