<svg viewBox="0 0 160 160" xmlns="http://www.w3.org/2000/svg"><path d="M33.528 33h94.219v26.28h-10.131V43.108H43.659V59.28H33.53V33z" fill="#fff"/><path d="M78.752 68.138c-4.86.547-8.085 2.64-9.745 6.32-.767 1.703-.972 2.803-.963 5.181.008 1.893.057 2.316.405 3.466.219.72.557 1.624.752 2.008 1.284 2.528 3.62 4.377 6.725 5.324 1.238.377 1.534.408 4.019.417 2.855.01 3.565-.103 5.463-.868 4.273-1.722 6.682-5.479 6.682-10.421 0-2.295-.543-4.486-1.526-6.16-.657-1.12-2.506-2.934-3.69-3.62-2.109-1.221-5.607-1.93-8.122-1.647zm3.116 6.454c2.068.772 3.286 3.388 2.777 5.967-.337 1.71-1.135 2.829-2.54 3.56-.558.292-.894.35-2.011.351-1.17.001-1.45-.052-2.195-.416-.469-.23-1.089-.693-1.377-1.03-1.37-1.596-1.624-4.337-.59-6.377.426-.842 1.512-1.821 2.347-2.117.938-.331 2.613-.302 3.59.062z" fill="#fff"/><path d="M29.953 68.365c-1.362.194-3.042.789-3.978 1.409-1.046.693-1.735 1.512-2.402 2.857-.48.968-.55 1.255-.603 2.462-.117 2.665.59 4.243 2.45 5.473 1.236.817 2.2 1.228 4.75 2.027 1.066.333 2.089.712 2.273.842.694.488.262 1.342-.763 1.508-1.195.194-3.873-.656-5.512-1.748-.49-.326-.937-.54-.995-.476-.058.065-.794 1.284-1.637 2.71l-1.532 2.594.334.231c2.922 2.021 5.462 2.774 8.937 2.648 2.371-.086 3.865-.485 5.315-1.421 2.495-1.61 3.827-4.504 3.363-7.306-.239-1.444-.674-2.309-1.654-3.283-1.09-1.084-2.394-1.736-5.332-2.667-1.331-.421-2.521-.867-2.645-.991-.336-.335-.274-.76.152-1.039.956-.624 3.777-.057 5.713 1.148.523.326.988.555 1.033.51.046-.046.67-1.17 1.386-2.496.99-1.831 1.264-2.459 1.14-2.608-.35-.421-2.19-1.375-3.465-1.796-2.155-.713-4.152-.898-6.328-.588z" fill="#fff"/><path d="M46.042 90.642h7.296l.08-6.914 2.46-.088c2.136-.076 2.611-.14 3.625-.486 3.335-1.139 4.869-3.37 4.869-7.083 0-3.707-1.57-5.995-4.882-7.112l-1.154-.39-12.294-.099v22.172zm9.995-16.424c.737.38 1.058 1.042.993 2.046-.046.715-.13.937-.492 1.298-.456.455-1.464.74-2.618.74h-.576v-4.505l1.122.095c.617.052 1.324.199 1.571.326z" fill="#fff"/><path d="m97.976 90.567 14.828.077v-5.95h-7.6V68.488H97.9l.076 22.08zM117.758 76.108c.049 6.637.089 7.735.311 8.512.906 3.164 2.939 5.094 6.285 5.966 1.45.378 5.501.382 7 .007 3.265-.817 5.412-2.805 6.289-5.824.229-.785.266-1.816.31-8.586l.051-7.695h-7.317v6.774c0 4.569-.055 6.992-.169 7.445-.34 1.344-1.615 2.131-3.099 1.913-.926-.136-1.594-.578-1.99-1.316-.326-.609-.331-.71-.374-7.716l-.044-7.1h-7.308l.055 7.62zM33.528 127h94.219v-26.28h-10.131v16.172H43.659V100.72H33.53V127z" fill="#fff"/></svg>
